<svg xmlns="http://www.w3.org/2000/svg" viewBox="0 0 1000 1000">
    <path fill="currentColor" d="M 17 0 L 34 0 L 34 34 L 0 34 L 0 17 A 17 17 0 0 1 17 0 M 34 0 L 69 0 L 69 34 L 34 34 L 34 0 M 69 0 L 103 0 L 103 34 L 69 34 L 69 0 M 103 0 L 138 0 L 138 34 L 103 34 L 103 0 M 138 0 L 172 0 L 172 34 L 138 34 L 138 0 M 172 0 L 207 0 L 207 34 L 172 34 L 172 0 M 207 0 L 224 0 A 17 17 0 0 1 241 17 L 241 34 L 207 34 L 207 0       M 466 0 L 466 0 A 17 17 0 0 1 483 17 L 483 17 A 17 17 0 0 1 466 34 L 466 34 A 17 17 0 0 1 448 17 L 448 17 A 17 17 0 0 1 466 0  M 534 0 L 552 0 L 552 34 L 517 34 L 517 17 A 17 17 0 0 1 534 0 M 552 0 L 569 0 A 17 17 0 0 1 586 17 L 586 34 L 552 34 L 552 0  M 638 0 L 655 0 L 655 34 L 638 34 A 17 17 0 0 1 621 17 L 621 17 A 17 17 0 0 1 638 0 M 655 0 L 672 0 A 17 17 0 0 1 690 17 L 690 17 A 17 17 0 0 1 672 34 L 655 34 L 655 0   M 776 0 L 793 0 L 793 34 L 759 34 L 759 17 A 17 17 0 0 1 776 0 M 793 0 L 828 0 L 828 34 L 793 34 L 793 0 M 828 0 L 862 0 L 862 34 L 828 34 L 828 0 M 862 0 L 897 0 L 897 34 L 862 34 L 862 0 M 897 0 L 931 0 L 931 34 L 897 34 L 897 0 M 931 0 L 966 0 L 966 34 L 931 34 L 931 0 M 966 0 L 983 0 A 17 17 0 0 1 1000 17 L 1000 34 L 966 34 L 966 0 M 0 34 L 34 34 L 34 69 L 0 69 L 0 34 M 52 34 L 34 34 L 34 52 A 17 17 0 0 1 52 34    M 207 52 L 207 34 L 190 34 A 17 17 0 0 1 207 52 M 207 34 L 241 34 L 241 69 L 207 69 L 207 34  M 293 34 L 310 34 L 310 69 L 293 69 A 17 17 0 0 1 276 52 L 276 52 A 17 17 0 0 1 293 34 M 310 34 L 328 34 A 17 17 0 0 1 345 52 L 345 52 A 17 17 0 0 1 328 69 L 310 69 L 310 34  M 397 34 L 397 34 A 17 17 0 0 1 414 52 L 414 69 L 379 69 L 379 52 A 17 17 0 0 1 397 34 M 414 52 L 414 69 L 431 69 A 17 17 0 0 1 414 52   M 517 34 L 552 34 L 552 69 L 517 69 L 517 34 M 552 34 L 586 34 L 586 69 L 552 69 L 552 34    M 707 34 L 707 34 A 17 17 0 0 1 724 52 L 724 69 L 690 69 L 690 52 A 17 17 0 0 1 707 34  M 759 34 L 793 34 L 793 69 L 759 69 L 759 34 M 810 34 L 793 34 L 793 52 A 17 17 0 0 1 810 34    M 966 52 L 966 34 L 948 34 A 17 17 0 0 1 966 52 M 966 34 L 1000 34 L 1000 69 L 966 69 L 966 34 M 0 69 L 34 69 L 34 103 L 0 103 L 0 69  M 86 69 L 103 69 L 103 103 L 69 103 L 69 86 A 17 17 0 0 1 86 69 M 103 69 L 138 69 L 138 103 L 103 103 L 103 69 M 138 69 L 155 69 A 17 17 0 0 1 172 86 L 172 103 L 138 103 L 138 69  M 207 69 L 241 69 L 241 103 L 207 103 L 207 69     M 379 69 L 414 69 L 414 103 L 397 103 A 17 17 0 0 1 379 86 L 379 69 M 414 69 L 431 69 A 17 17 0 0 1 448 86 L 448 103 L 414 103 L 414 69   M 517 69 L 552 69 L 552 103 L 534 103 A 17 17 0 0 1 517 86 L 517 69 M 552 69 L 586 69 L 586 103 L 552 103 L 552 69 M 586 86 L 586 103 L 603 103 A 17 17 0 0 1 586 86  M 672 103 L 690 103 L 690 86 A 17 17 0 0 1 672 103 M 690 69 L 724 69 L 724 103 L 690 103 L 690 69  M 759 69 L 793 69 L 793 103 L 759 103 L 759 69  M 845 69 L 862 69 L 862 103 L 828 103 L 828 86 A 17 17 0 0 1 845 69 M 862 69 L 897 69 L 897 103 L 862 103 L 862 69 M 897 69 L 914 69 A 17 17 0 0 1 931 86 L 931 103 L 897 103 L 897 69  M 966 69 L 1000 69 L 1000 103 L 966 103 L 966 69 M 0 103 L 34 103 L 34 138 L 0 138 L 0 103  M 69 103 L 103 103 L 103 138 L 69 138 L 69 103 M 103 103 L 138 103 L 138 138 L 103 138 L 103 103 M 138 103 L 172 103 L 172 138 L 138 138 L 138 103  M 207 103 L 241 103 L 241 138 L 207 138 L 207 103  M 293 103 L 310 103 L 310 138 L 276 138 L 276 121 A 17 17 0 0 1 293 103 M 310 103 L 345 103 L 345 138 L 310 138 L 310 103 M 345 103 L 362 103 A 17 17 0 0 1 379 121 L 379 138 L 345 138 L 345 103 M 414 121 L 414 103 L 397 103 A 17 17 0 0 1 414 121 M 414 103 L 448 103 L 448 121 A 17 17 0 0 1 431 138 L 431 138 A 17 17 0 0 1 414 121 L 414 103  M 500 103 L 500 103 A 17 17 0 0 1 517 121 L 517 121 A 17 17 0 0 1 500 138 L 500 138 A 17 17 0 0 1 483 121 L 483 121 A 17 17 0 0 1 500 103 M 552 121 L 552 103 L 534 103 A 17 17 0 0 1 552 121 M 552 103 L 586 103 L 586 138 L 552 138 L 552 103 M 586 103 L 603 103 A 17 17 0 0 1 621 121 L 621 138 L 586 138 L 586 103 M 638 138 L 655 138 L 655 121 A 17 17 0 0 1 638 138 M 621 121 L 621 138 L 638 138 A 17 17 0 0 1 621 121 M 672 103 L 690 103 L 690 138 L 655 138 L 655 121 A 17 17 0 0 1 672 103 M 690 103 L 724 103 L 724 121 A 17 17 0 0 1 707 138 L 690 138 L 690 103  M 759 103 L 793 103 L 793 138 L 759 138 L 759 103  M 828 103 L 862 103 L 862 138 L 828 138 L 828 103 M 862 103 L 897 103 L 897 138 L 862 138 L 862 103 M 897 103 L 931 103 L 931 138 L 897 138 L 897 103  M 966 103 L 1000 103 L 1000 138 L 966 138 L 966 103 M 0 138 L 34 138 L 34 172 L 0 172 L 0 138  M 69 138 L 103 138 L 103 172 L 86 172 A 17 17 0 0 1 69 155 L 69 138 M 103 138 L 138 138 L 138 172 L 103 172 L 103 138 M 138 138 L 172 138 L 172 155 A 17 17 0 0 1 155 172 L 138 172 L 138 138  M 207 138 L 241 138 L 241 172 L 207 172 L 207 138  M 276 138 L 310 138 L 310 155 A 17 17 0 0 1 293 172 L 293 172 A 17 17 0 0 1 276 155 L 276 138 M 328 138 L 310 138 L 310 155 A 17 17 0 0 1 328 138 M 345 155 L 345 138 L 328 138 A 17 17 0 0 1 345 155 M 345 138 L 379 138 L 379 155 A 17 17 0 0 1 362 172 L 362 172 A 17 17 0 0 1 345 155 L 345 138   M 466 138 L 466 138 A 17 17 0 0 1 483 155 L 483 172 L 448 172 L 448 155 A 17 17 0 0 1 466 138   M 552 138 L 586 138 L 586 172 L 569 172 A 17 17 0 0 1 552 155 L 552 138 M 586 138 L 621 138 L 621 172 L 586 172 L 586 138 M 621 138 L 655 138 L 655 172 L 621 172 L 621 138 M 655 138 L 690 138 L 690 155 A 17 17 0 0 1 672 172 L 655 172 L 655 138 M 707 138 L 690 138 L 690 155 A 17 17 0 0 1 707 138  M 759 138 L 793 138 L 793 172 L 759 172 L 759 138  M 828 138 L 862 138 L 862 172 L 845 172 A 17 17 0 0 1 828 155 L 828 138 M 862 138 L 897 138 L 897 172 L 862 172 L 862 138 M 897 138 L 931 138 L 931 155 A 17 17 0 0 1 914 172 L 897 172 L 897 138  M 966 138 L 1000 138 L 1000 172 L 966 172 L 966 138 M 0 172 L 34 172 L 34 207 L 0 207 L 0 172 M 34 190 L 34 207 L 52 207 A 17 17 0 0 1 34 190    M 190 207 L 207 207 L 207 190 A 17 17 0 0 1 190 207 M 207 172 L 241 172 L 241 207 L 207 207 L 207 172       M 448 172 L 483 172 L 483 190 A 17 17 0 0 1 466 207 L 466 207 A 17 17 0 0 1 448 190 L 448 172  M 534 172 L 534 172 A 17 17 0 0 1 552 190 L 552 190 A 17 17 0 0 1 534 207 L 534 207 A 17 17 0 0 1 517 190 L 517 190 A 17 17 0 0 1 534 172 M 586 190 L 586 172 L 569 172 A 17 17 0 0 1 586 190 M 586 172 L 621 172 L 621 207 L 603 207 A 17 17 0 0 1 586 190 L 586 172 M 621 172 L 655 172 L 655 207 L 621 207 L 621 172 M 672 172 L 655 172 L 655 190 A 17 17 0 0 1 672 172   M 759 172 L 793 172 L 793 207 L 759 207 L 759 172 M 793 190 L 793 207 L 810 207 A 17 17 0 0 1 793 190    M 948 207 L 966 207 L 966 190 A 17 17 0 0 1 948 207 M 966 172 L 1000 172 L 1000 207 L 966 207 L 966 172 M 0 207 L 34 207 L 34 241 L 17 241 A 17 17 0 0 1 0 224 L 0 207 M 34 207 L 69 207 L 69 241 L 34 241 L 34 207 M 69 207 L 103 207 L 103 241 L 69 241 L 69 207 M 103 207 L 138 207 L 138 241 L 103 241 L 103 207 M 138 207 L 172 207 L 172 241 L 138 241 L 138 207 M 172 207 L 207 207 L 207 241 L 172 241 L 172 207 M 207 207 L 241 207 L 241 224 A 17 17 0 0 1 224 241 L 207 241 L 207 207  M 293 207 L 293 207 A 17 17 0 0 1 310 224 L 310 241 L 276 241 L 276 224 A 17 17 0 0 1 293 207  M 362 207 L 362 207 A 17 17 0 0 1 379 224 L 379 224 A 17 17 0 0 1 362 241 L 362 241 A 17 17 0 0 1 345 224 L 345 224 A 17 17 0 0 1 362 207 M 397 241 L 414 241 L 414 224 A 17 17 0 0 1 397 241 M 431 207 L 431 207 A 17 17 0 0 1 448 224 L 448 241 L 414 241 L 414 224 A 17 17 0 0 1 431 207  M 500 207 L 500 207 A 17 17 0 0 1 517 224 L 517 224 A 17 17 0 0 1 500 241 L 500 241 A 17 17 0 0 1 483 224 L 483 224 A 17 17 0 0 1 500 207  M 569 207 L 569 207 A 17 17 0 0 1 586 224 L 586 224 A 17 17 0 0 1 569 241 L 569 241 A 17 17 0 0 1 552 224 L 552 224 A 17 17 0 0 1 569 207 M 621 224 L 621 207 L 603 207 A 17 17 0 0 1 621 224 M 621 207 L 655 207 L 655 224 A 17 17 0 0 1 638 241 L 638 241 A 17 17 0 0 1 621 224 L 621 207  M 707 207 L 707 207 A 17 17 0 0 1 724 224 L 724 224 A 17 17 0 0 1 707 241 L 707 241 A 17 17 0 0 1 690 224 L 690 224 A 17 17 0 0 1 707 207  M 759 207 L 793 207 L 793 241 L 776 241 A 17 17 0 0 1 759 224 L 759 207 M 793 207 L 828 207 L 828 241 L 793 241 L 793 207 M 828 207 L 862 207 L 862 241 L 828 241 L 828 207 M 862 207 L 897 207 L 897 241 L 862 241 L 862 207 M 897 207 L 931 207 L 931 241 L 897 241 L 897 207 M 931 207 L 966 207 L 966 241 L 931 241 L 931 207 M 966 207 L 1000 207 L 1000 224 A 17 17 0 0 1 983 241 L 966 241 L 966 207         M 276 241 L 310 241 L 310 276 L 276 276 L 276 241   M 397 241 L 414 241 L 414 276 L 397 276 A 17 17 0 0 1 379 259 L 379 259 A 17 17 0 0 1 397 241 M 414 241 L 448 241 L 448 276 L 414 276 L 414 241   M 534 241 L 534 241 A 17 17 0 0 1 552 259 L 552 259 A 17 17 0 0 1 534 276 L 534 276 A 17 17 0 0 1 517 259 L 517 259 A 17 17 0 0 1 534 241               M 52 276 L 52 276 A 17 17 0 0 1 69 293 L 69 293 A 17 17 0 0 1 52 310 L 52 310 A 17 17 0 0 1 34 293 L 34 293 A 17 17 0 0 1 52 276  M 121 276 L 138 276 L 138 310 L 121 310 A 17 17 0 0 1 103 293 L 103 293 A 17 17 0 0 1 121 276 M 138 276 L 172 276 L 172 310 L 138 310 L 138 276 M 172 276 L 207 276 L 207 310 L 172 310 L 172 276 M 207 276 L 224 276 A 17 17 0 0 1 241 293 L 241 293 A 17 17 0 0 1 224 310 L 207 310 L 207 276  M 276 276 L 310 276 L 310 310 L 276 310 L 276 276   M 414 293 L 414 276 L 397 276 A 17 17 0 0 1 414 293 M 397 310 L 414 310 L 414 293 A 17 17 0 0 1 397 310 M 414 276 L 448 276 L 448 310 L 414 310 L 414 276 M 448 293 L 448 310 L 466 310 A 17 17 0 0 1 448 293   M 569 276 L 569 276 A 17 17 0 0 1 586 293 L 586 293 A 17 17 0 0 1 569 310 L 569 310 A 17 17 0 0 1 552 293 L 552 293 A 17 17 0 0 1 569 276  M 638 276 L 638 276 A 17 17 0 0 1 655 293 L 655 293 A 17 17 0 0 1 638 310 L 638 310 A 17 17 0 0 1 621 293 L 621 293 A 17 17 0 0 1 638 276  M 707 276 L 724 276 L 724 310 L 690 310 L 690 293 A 17 17 0 0 1 707 276 M 724 276 L 759 276 L 759 310 L 724 310 L 724 276 M 759 276 L 776 276 A 17 17 0 0 1 793 293 L 793 293 A 17 17 0 0 1 776 310 L 759 310 L 759 276 M 810 310 L 828 310 L 828 293 A 17 17 0 0 1 810 310 M 845 276 L 862 276 L 862 310 L 828 310 L 828 293 A 17 17 0 0 1 845 276 M 862 276 L 879 276 A 17 17 0 0 1 897 293 L 897 310 L 862 310 L 862 276 M 914 310 L 931 310 L 931 293 A 17 17 0 0 1 914 310 M 897 293 L 897 310 L 914 310 A 17 17 0 0 1 897 293 M 948 276 L 948 276 A 17 17 0 0 1 966 293 L 966 310 L 931 310 L 931 293 A 17 17 0 0 1 948 276  M 17 310 L 17 310 A 17 17 0 0 1 34 328 L 34 345 L 0 345 L 0 328 A 17 17 0 0 1 17 310  M 86 310 L 86 310 A 17 17 0 0 1 103 328 L 103 345 L 69 345 L 69 328 A 17 17 0 0 1 86 310 M 138 328 L 138 310 L 121 310 A 17 17 0 0 1 138 328 M 138 310 L 172 310 L 172 345 L 138 345 L 138 310 M 190 310 L 172 310 L 172 328 A 17 17 0 0 1 190 310   M 276 310 L 310 310 L 310 345 L 276 345 L 276 310 M 310 328 L 310 345 L 328 345 A 17 17 0 0 1 310 328 M 362 345 L 379 345 L 379 328 A 17 17 0 0 1 362 345 M 397 310 L 414 310 L 414 345 L 379 345 L 379 328 A 17 17 0 0 1 397 310 M 414 310 L 448 310 L 448 345 L 414 345 L 414 310 M 448 310 L 466 310 A 17 17 0 0 1 483 328 L 483 328 A 17 17 0 0 1 466 345 L 448 345 L 448 310  M 534 310 L 534 310 A 17 17 0 0 1 552 328 L 552 328 A 17 17 0 0 1 534 345 L 534 345 A 17 17 0 0 1 517 328 L 517 328 A 17 17 0 0 1 534 310     M 690 310 L 724 310 L 724 328 A 17 17 0 0 1 707 345 L 707 345 A 17 17 0 0 1 690 328 L 690 310 M 741 310 L 724 310 L 724 328 A 17 17 0 0 1 741 310 M 776 345 L 793 345 L 793 328 A 17 17 0 0 1 776 345 M 810 310 L 828 310 L 828 345 L 793 345 L 793 328 A 17 17 0 0 1 810 310 M 828 310 L 862 310 L 862 345 L 828 345 L 828 310 M 862 310 L 897 310 L 897 345 L 862 345 L 862 310 M 897 310 L 931 310 L 931 345 L 897 345 L 897 310 M 931 310 L 966 310 L 966 328 A 17 17 0 0 1 948 345 L 931 345 L 931 310  M 0 345 L 34 345 L 34 379 L 0 379 L 0 345  M 69 345 L 103 345 L 103 379 L 69 379 L 69 345  M 138 345 L 172 345 L 172 379 L 138 379 L 138 345 M 172 362 L 172 379 L 190 379 A 17 17 0 0 1 172 362 M 224 345 L 224 345 A 17 17 0 0 1 241 362 L 241 362 A 17 17 0 0 1 224 379 L 224 379 A 17 17 0 0 1 207 362 L 207 362 A 17 17 0 0 1 224 345 M 259 379 L 276 379 L 276 362 A 17 17 0 0 1 259 379 M 276 345 L 310 345 L 310 379 L 276 379 L 276 345 M 310 345 L 345 345 L 345 379 L 310 379 L 310 345 M 345 345 L 379 345 L 379 379 L 345 379 L 345 345 M 379 345 L 414 345 L 414 379 L 379 379 L 379 345 M 414 345 L 448 345 L 448 362 A 17 17 0 0 1 431 379 L 414 379 L 414 345 M 466 345 L 448 345 L 448 362 A 17 17 0 0 1 466 345 M 466 379 L 483 379 L 483 362 A 17 17 0 0 1 466 379 M 500 345 L 500 345 A 17 17 0 0 1 517 362 L 517 379 L 483 379 L 483 362 A 17 17 0 0 1 500 345 M 517 362 L 517 379 L 534 379 A 17 17 0 0 1 517 362 M 569 379 L 586 379 L 586 362 A 17 17 0 0 1 569 379 M 603 345 L 603 345 A 17 17 0 0 1 621 362 L 621 379 L 586 379 L 586 362 A 17 17 0 0 1 603 345    M 741 345 L 759 345 L 759 379 L 741 379 A 17 17 0 0 1 724 362 L 724 362 A 17 17 0 0 1 741 345 M 759 345 L 793 345 L 793 379 L 759 379 L 759 345 M 793 345 L 828 345 L 828 362 A 17 17 0 0 1 810 379 L 793 379 L 793 345 M 845 345 L 828 345 L 828 362 A 17 17 0 0 1 845 345 M 897 362 L 897 345 L 879 345 A 17 17 0 0 1 897 362 M 897 345 L 931 345 L 931 362 A 17 17 0 0 1 914 379 L 914 379 A 17 17 0 0 1 897 362 L 897 345 M 948 345 L 931 345 L 931 362 A 17 17 0 0 1 948 345  M 0 379 L 34 379 L 34 397 A 17 17 0 0 1 17 414 L 17 414 A 17 17 0 0 1 0 397 L 0 379  M 69 379 L 103 379 L 103 397 A 17 17 0 0 1 86 414 L 86 414 A 17 17 0 0 1 69 397 L 69 379  M 138 379 L 172 379 L 172 414 L 138 414 L 138 379 M 172 379 L 190 379 A 17 17 0 0 1 207 397 L 207 414 L 172 414 L 172 379 M 224 414 L 241 414 L 241 397 A 17 17 0 0 1 224 414 M 207 397 L 207 414 L 224 414 A 17 17 0 0 1 207 397 M 259 379 L 276 379 L 276 414 L 241 414 L 241 397 A 17 17 0 0 1 259 379 M 276 379 L 310 379 L 310 414 L 276 414 L 276 379 M 328 379 L 310 379 L 310 397 A 17 17 0 0 1 328 379 M 379 397 L 379 379 L 362 379 A 17 17 0 0 1 379 397 M 379 379 L 414 379 L 414 414 L 379 414 L 379 379 M 431 379 L 414 379 L 414 397 A 17 17 0 0 1 431 379 M 414 397 L 414 414 L 431 414 A 17 17 0 0 1 414 397 M 466 379 L 483 379 L 483 414 L 466 414 A 17 17 0 0 1 448 397 L 448 397 A 17 17 0 0 1 466 379 M 483 379 L 517 379 L 517 414 L 483 414 L 483 379 M 517 379 L 552 379 L 552 414 L 517 414 L 517 379 M 552 379 L 586 379 L 586 414 L 552 414 L 552 379 M 586 379 L 621 379 L 621 397 A 17 17 0 0 1 603 414 L 586 414 L 586 379       M 845 379 L 862 379 L 862 414 L 845 414 A 17 17 0 0 1 828 397 L 828 397 A 17 17 0 0 1 845 379 M 862 379 L 879 379 A 17 17 0 0 1 897 397 L 897 414 L 862 414 L 862 379   M 983 379 L 983 379 A 17 17 0 0 1 1000 397 L 1000 397 A 17 17 0 0 1 983 414 L 983 414 A 17 17 0 0 1 966 397 L 966 397 A 17 17 0 0 1 983 379  M 52 414 L 52 414 A 17 17 0 0 1 69 431 L 69 448 L 34 448 L 34 431 A 17 17 0 0 1 52 414 M 69 431 L 69 448 L 86 448 A 17 17 0 0 1 69 431  M 138 414 L 172 414 L 172 448 L 155 448 A 17 17 0 0 1 138 431 L 138 414 M 172 414 L 207 414 L 207 448 L 172 448 L 172 414 M 207 414 L 241 414 L 241 448 L 207 448 L 207 414 M 241 414 L 276 414 L 276 448 L 241 448 L 241 414 M 276 414 L 310 414 L 310 431 A 17 17 0 0 1 293 448 L 276 448 L 276 414   M 379 414 L 414 414 L 414 448 L 379 448 L 379 414 M 414 414 L 431 414 A 17 17 0 0 1 448 431 L 448 448 L 414 448 L 414 414 M 483 431 L 483 414 L 466 414 A 17 17 0 0 1 483 431 M 448 431 L 448 448 L 466 448 A 17 17 0 0 1 448 431 M 483 414 L 517 414 L 517 448 L 500 448 A 17 17 0 0 1 483 431 L 483 414 M 517 414 L 552 414 L 552 448 L 517 448 L 517 414 M 569 414 L 552 414 L 552 431 A 17 17 0 0 1 569 414 M 552 431 L 552 448 L 569 448 A 17 17 0 0 1 552 431 M 603 448 L 621 448 L 621 431 A 17 17 0 0 1 603 448 M 638 414 L 655 414 L 655 448 L 621 448 L 621 431 A 17 17 0 0 1 638 414 M 655 414 L 690 414 L 690 448 L 655 448 L 655 414 M 690 414 L 724 414 L 724 448 L 690 448 L 690 414 M 724 414 L 759 414 L 759 448 L 724 448 L 724 414 M 759 414 L 776 414 A 17 17 0 0 1 793 431 L 793 448 L 759 448 L 759 414  M 862 431 L 862 414 L 845 414 A 17 17 0 0 1 862 431 M 862 414 L 897 414 L 897 431 A 17 17 0 0 1 879 448 L 879 448 A 17 17 0 0 1 862 431 L 862 414  M 948 414 L 948 414 A 17 17 0 0 1 966 431 L 966 431 A 17 17 0 0 1 948 448 L 948 448 A 17 17 0 0 1 931 431 L 931 431 A 17 17 0 0 1 948 414   M 34 448 L 69 448 L 69 483 L 52 483 A 17 17 0 0 1 34 466 L 34 448 M 69 448 L 103 448 L 103 483 L 69 483 L 69 448 M 103 448 L 121 448 A 17 17 0 0 1 138 466 L 138 466 A 17 17 0 0 1 121 483 L 103 483 L 103 448 M 172 466 L 172 448 L 155 448 A 17 17 0 0 1 172 466 M 172 448 L 207 448 L 207 466 A 17 17 0 0 1 190 483 L 190 483 A 17 17 0 0 1 172 466 L 172 448 M 224 448 L 207 448 L 207 466 A 17 17 0 0 1 224 448 M 241 466 L 241 448 L 224 448 A 17 17 0 0 1 241 466 M 224 483 L 241 483 L 241 466 A 17 17 0 0 1 224 483 M 241 448 L 276 448 L 276 483 L 241 483 L 241 448 M 293 448 L 276 448 L 276 466 A 17 17 0 0 1 293 448 M 328 448 L 328 448 A 17 17 0 0 1 345 466 L 345 466 A 17 17 0 0 1 328 483 L 328 483 A 17 17 0 0 1 310 466 L 310 466 A 17 17 0 0 1 328 448  M 379 448 L 414 448 L 414 483 L 397 483 A 17 17 0 0 1 379 466 L 379 448 M 414 448 L 448 448 L 448 483 L 414 483 L 414 448 M 448 448 L 466 448 A 17 17 0 0 1 483 466 L 483 466 A 17 17 0 0 1 466 483 L 448 483 L 448 448 M 517 466 L 517 448 L 500 448 A 17 17 0 0 1 517 466 M 517 448 L 552 448 L 552 483 L 534 483 A 17 17 0 0 1 517 466 L 517 448 M 552 448 L 586 448 L 586 483 L 552 483 L 552 448 M 586 448 L 621 448 L 621 483 L 586 483 L 586 448 M 621 448 L 655 448 L 655 466 A 17 17 0 0 1 638 483 L 621 483 L 621 448 M 672 448 L 655 448 L 655 466 A 17 17 0 0 1 672 448 M 690 466 L 690 448 L 672 448 A 17 17 0 0 1 690 466 M 690 448 L 724 448 L 724 466 A 17 17 0 0 1 707 483 L 707 483 A 17 17 0 0 1 690 466 L 690 448 M 741 448 L 724 448 L 724 466 A 17 17 0 0 1 741 448 M 759 466 L 759 448 L 741 448 A 17 17 0 0 1 759 466 M 741 483 L 759 483 L 759 466 A 17 17 0 0 1 741 483 M 759 448 L 793 448 L 793 483 L 759 483 L 759 448 M 793 466 L 793 483 L 810 483 A 17 17 0 0 1 793 466 M 845 448 L 845 448 A 17 17 0 0 1 862 466 L 862 466 A 17 17 0 0 1 845 483 L 845 483 A 17 17 0 0 1 828 466 L 828 466 A 17 17 0 0 1 845 448  M 914 448 L 914 448 A 17 17 0 0 1 931 466 L 931 466 A 17 17 0 0 1 914 483 L 914 483 A 17 17 0 0 1 897 466 L 897 466 A 17 17 0 0 1 914 448  M 983 448 L 983 448 A 17 17 0 0 1 1000 466 L 1000 483 L 966 483 L 966 466 A 17 17 0 0 1 983 448 M 17 483 L 17 483 A 17 17 0 0 1 34 500 L 34 500 A 17 17 0 0 1 17 517 L 17 517 A 17 17 0 0 1 0 500 L 0 500 A 17 17 0 0 1 17 483 M 69 500 L 69 483 L 52 483 A 17 17 0 0 1 69 500 M 69 483 L 103 483 L 103 500 A 17 17 0 0 1 86 517 L 86 517 A 17 17 0 0 1 69 500 L 69 483 M 121 483 L 103 483 L 103 500 A 17 17 0 0 1 121 483 M 155 483 L 155 483 A 17 17 0 0 1 172 500 L 172 517 L 138 517 L 138 500 A 17 17 0 0 1 155 483 M 172 500 L 172 517 L 190 517 A 17 17 0 0 1 172 500 M 224 483 L 241 483 L 241 517 L 224 517 A 17 17 0 0 1 207 500 L 207 500 A 17 17 0 0 1 224 483 M 241 483 L 276 483 L 276 517 L 241 517 L 241 483 M 276 500 L 276 517 L 293 517 A 17 17 0 0 1 276 500   M 414 500 L 414 483 L 397 483 A 17 17 0 0 1 414 500 M 414 483 L 448 483 L 448 500 A 17 17 0 0 1 431 517 L 431 517 A 17 17 0 0 1 414 500 L 414 483 M 466 483 L 448 483 L 448 500 A 17 17 0 0 1 466 483 M 500 483 L 500 483 A 17 17 0 0 1 517 500 L 517 500 A 17 17 0 0 1 500 517 L 500 517 A 17 17 0 0 1 483 500 L 483 500 A 17 17 0 0 1 500 483 M 552 500 L 552 483 L 534 483 A 17 17 0 0 1 552 500 M 534 517 L 552 517 L 552 500 A 17 17 0 0 1 534 517 M 552 483 L 586 483 L 586 517 L 552 517 L 552 483 M 586 483 L 621 483 L 621 517 L 586 517 L 586 483 M 638 483 L 621 483 L 621 500 A 17 17 0 0 1 638 483 M 621 500 L 621 517 L 638 517 A 17 17 0 0 1 621 500 M 672 483 L 672 483 A 17 17 0 0 1 690 500 L 690 500 A 17 17 0 0 1 672 517 L 672 517 A 17 17 0 0 1 655 500 L 655 500 A 17 17 0 0 1 672 483  M 741 483 L 759 483 L 759 517 L 724 517 L 724 500 A 17 17 0 0 1 741 483 M 759 483 L 793 483 L 793 517 L 759 517 L 759 483 M 793 483 L 810 483 A 17 17 0 0 1 828 500 L 828 500 A 17 17 0 0 1 810 517 L 793 517 L 793 483 M 845 517 L 862 517 L 862 500 A 17 17 0 0 1 845 517 M 879 483 L 879 483 A 17 17 0 0 1 897 500 L 897 517 L 862 517 L 862 500 A 17 17 0 0 1 879 483 M 897 500 L 897 517 L 914 517 A 17 17 0 0 1 897 500 M 948 517 L 966 517 L 966 500 A 17 17 0 0 1 948 517 M 966 483 L 1000 483 L 1000 517 L 966 517 L 966 483  M 52 517 L 52 517 A 17 17 0 0 1 69 534 L 69 534 A 17 17 0 0 1 52 552 L 52 552 A 17 17 0 0 1 34 534 L 34 534 A 17 17 0 0 1 52 517   M 138 517 L 172 517 L 172 552 L 155 552 A 17 17 0 0 1 138 534 L 138 517 M 172 517 L 190 517 A 17 17 0 0 1 207 534 L 207 552 L 172 552 L 172 517 M 241 534 L 241 517 L 224 517 A 17 17 0 0 1 241 534 M 207 534 L 207 552 L 224 552 A 17 17 0 0 1 207 534 M 241 517 L 276 517 L 276 552 L 259 552 A 17 17 0 0 1 241 534 L 241 517 M 276 517 L 310 517 L 310 552 L 276 552 L 276 517 M 310 517 L 345 517 L 345 552 L 310 552 L 310 517 M 345 517 L 362 517 A 17 17 0 0 1 379 534 L 379 534 A 17 17 0 0 1 362 552 L 345 552 L 345 517   M 466 517 L 466 517 A 17 17 0 0 1 483 534 L 483 552 L 448 552 L 448 534 A 17 17 0 0 1 466 517 M 483 534 L 483 552 L 500 552 A 17 17 0 0 1 483 534 M 534 517 L 552 517 L 552 552 L 534 552 A 17 17 0 0 1 517 534 L 517 534 A 17 17 0 0 1 534 517 M 552 517 L 586 517 L 586 552 L 552 552 L 552 517 M 586 517 L 621 517 L 621 552 L 586 552 L 586 517 M 621 517 L 638 517 A 17 17 0 0 1 655 534 L 655 534 A 17 17 0 0 1 638 552 L 621 552 L 621 517   M 724 517 L 759 517 L 759 552 L 741 552 A 17 17 0 0 1 724 534 L 724 517 M 759 517 L 793 517 L 793 534 A 17 17 0 0 1 776 552 L 759 552 L 759 517 M 810 517 L 793 517 L 793 534 A 17 17 0 0 1 810 517 M 845 517 L 862 517 L 862 552 L 845 552 A 17 17 0 0 1 828 534 L 828 534 A 17 17 0 0 1 845 517 M 862 517 L 897 517 L 897 552 L 862 552 L 862 517 M 897 517 L 931 517 L 931 552 L 897 552 L 897 517 M 931 517 L 966 517 L 966 552 L 931 552 L 931 517 M 966 517 L 1000 517 L 1000 552 L 966 552 L 966 517 M 17 552 L 17 552 A 17 17 0 0 1 34 569 L 34 586 L 0 586 L 0 569 A 17 17 0 0 1 17 552  M 86 552 L 103 552 L 103 586 L 69 586 L 69 569 A 17 17 0 0 1 86 552 M 103 552 L 121 552 A 17 17 0 0 1 138 569 L 138 586 L 103 586 L 103 552 M 172 569 L 172 552 L 155 552 A 17 17 0 0 1 172 569 M 138 569 L 138 586 L 155 586 A 17 17 0 0 1 138 569 M 172 552 L 207 552 L 207 586 L 190 586 A 17 17 0 0 1 172 569 L 172 552 M 207 552 L 224 552 A 17 17 0 0 1 241 569 L 241 569 A 17 17 0 0 1 224 586 L 207 586 L 207 552 M 276 569 L 276 552 L 259 552 A 17 17 0 0 1 276 569 M 276 552 L 310 552 L 310 586 L 293 586 A 17 17 0 0 1 276 569 L 276 552 M 310 552 L 345 552 L 345 586 L 310 586 L 310 552 M 362 552 L 345 552 L 345 569 A 17 17 0 0 1 362 552  M 431 586 L 448 586 L 448 569 A 17 17 0 0 1 431 586 M 448 552 L 483 552 L 483 586 L 448 586 L 448 552 M 483 552 L 500 552 A 17 17 0 0 1 517 569 L 517 569 A 17 17 0 0 1 500 586 L 483 586 L 483 552 M 552 569 L 552 552 L 534 552 A 17 17 0 0 1 552 569 M 552 552 L 586 552 L 586 586 L 552 586 L 552 552 M 586 552 L 621 552 L 621 569 A 17 17 0 0 1 603 586 L 586 586 L 586 552 M 638 552 L 621 552 L 621 569 A 17 17 0 0 1 638 552  M 707 552 L 707 552 A 17 17 0 0 1 724 569 L 724 586 L 690 586 L 690 569 A 17 17 0 0 1 707 552    M 862 569 L 862 552 L 845 552 A 17 17 0 0 1 862 569 M 845 586 L 862 586 L 862 569 A 17 17 0 0 1 845 586 M 862 552 L 897 552 L 897 586 L 862 586 L 862 552 M 914 552 L 897 552 L 897 569 A 17 17 0 0 1 914 552 M 931 569 L 931 552 L 914 552 A 17 17 0 0 1 931 569 M 897 569 L 897 586 L 914 586 A 17 17 0 0 1 897 569 M 931 552 L 966 552 L 966 586 L 948 586 A 17 17 0 0 1 931 569 L 931 552 M 966 552 L 1000 552 L 1000 569 A 17 17 0 0 1 983 586 L 966 586 L 966 552 M 0 586 L 34 586 L 34 621 L 0 621 L 0 586 M 52 621 L 69 621 L 69 603 A 17 17 0 0 1 52 621 M 34 603 L 34 621 L 52 621 A 17 17 0 0 1 34 603 M 69 586 L 103 586 L 103 621 L 69 621 L 69 586 M 103 586 L 138 586 L 138 621 L 103 621 L 103 586 M 138 586 L 155 586 A 17 17 0 0 1 172 603 L 172 603 A 17 17 0 0 1 155 621 L 138 621 L 138 586    M 310 603 L 310 586 L 293 586 A 17 17 0 0 1 310 603 M 310 586 L 345 586 L 345 621 L 310 621 L 310 586  M 397 586 L 414 586 L 414 621 L 379 621 L 379 603 A 17 17 0 0 1 397 586 M 414 586 L 448 586 L 448 621 L 414 621 L 414 586 M 448 586 L 483 586 L 483 603 A 17 17 0 0 1 466 621 L 448 621 L 448 586 M 500 586 L 483 586 L 483 603 A 17 17 0 0 1 500 586  M 552 586 L 586 586 L 586 603 A 17 17 0 0 1 569 621 L 569 621 A 17 17 0 0 1 552 603 L 552 586 M 603 586 L 586 586 L 586 603 A 17 17 0 0 1 603 586 M 638 586 L 638 586 A 17 17 0 0 1 655 603 L 655 603 A 17 17 0 0 1 638 621 L 638 621 A 17 17 0 0 1 621 603 L 621 603 A 17 17 0 0 1 638 586  M 690 586 L 724 586 L 724 621 L 690 621 L 690 586    M 845 586 L 862 586 L 862 621 L 828 621 L 828 603 A 17 17 0 0 1 845 586 M 862 586 L 897 586 L 897 621 L 862 621 L 862 586 M 897 586 L 914 586 A 17 17 0 0 1 931 603 L 931 603 A 17 17 0 0 1 914 621 L 897 621 L 897 586   M 0 621 L 34 621 L 34 655 L 0 655 L 0 621 M 34 621 L 69 621 L 69 655 L 34 655 L 34 621 M 69 621 L 103 621 L 103 655 L 69 655 L 69 621 M 121 621 L 103 621 L 103 638 A 17 17 0 0 1 121 621   M 224 621 L 241 621 L 241 655 L 224 655 A 17 17 0 0 1 207 638 L 207 638 A 17 17 0 0 1 224 621 M 241 621 L 259 621 A 17 17 0 0 1 276 638 L 276 655 L 241 655 L 241 621  M 310 621 L 345 621 L 345 655 L 310 655 L 310 621 M 345 638 L 345 655 L 362 655 A 17 17 0 0 1 345 638 M 379 621 L 414 621 L 414 638 A 17 17 0 0 1 397 655 L 397 655 A 17 17 0 0 1 379 638 L 379 621 M 431 621 L 414 621 L 414 638 A 17 17 0 0 1 431 621 M 466 655 L 483 655 L 483 638 A 17 17 0 0 1 466 655 M 500 621 L 517 621 L 517 655 L 483 655 L 483 638 A 17 17 0 0 1 500 621 M 517 621 L 534 621 A 17 17 0 0 1 552 638 L 552 638 A 17 17 0 0 1 534 655 L 517 655 L 517 621     M 690 621 L 724 621 L 724 638 A 17 17 0 0 1 707 655 L 707 655 A 17 17 0 0 1 690 638 L 690 621    M 828 621 L 862 621 L 862 638 A 17 17 0 0 1 845 655 L 845 655 A 17 17 0 0 1 828 638 L 828 621 M 879 621 L 862 621 L 862 638 A 17 17 0 0 1 879 621   M 983 621 L 983 621 A 17 17 0 0 1 1000 638 L 1000 638 A 17 17 0 0 1 983 655 L 983 655 A 17 17 0 0 1 966 638 L 966 638 A 17 17 0 0 1 983 621 M 0 655 L 34 655 L 34 690 L 0 690 L 0 655 M 34 655 L 69 655 L 69 690 L 34 690 L 34 655 M 69 655 L 103 655 L 103 690 L 69 690 L 69 655 M 103 672 L 103 690 L 121 690 A 17 17 0 0 1 103 672  M 190 655 L 190 655 A 17 17 0 0 1 207 672 L 207 672 A 17 17 0 0 1 190 690 L 190 690 A 17 17 0 0 1 172 672 L 172 672 A 17 17 0 0 1 190 655 M 241 672 L 241 655 L 224 655 A 17 17 0 0 1 241 672 M 224 690 L 241 690 L 241 672 A 17 17 0 0 1 224 690 M 241 655 L 276 655 L 276 690 L 241 690 L 241 655  M 310 655 L 345 655 L 345 690 L 310 690 L 310 655 M 345 655 L 362 655 A 17 17 0 0 1 379 672 L 379 672 A 17 17 0 0 1 362 690 L 345 690 L 345 655   M 466 655 L 483 655 L 483 690 L 448 690 L 448 672 A 17 17 0 0 1 466 655 M 483 655 L 517 655 L 517 672 A 17 17 0 0 1 500 690 L 483 690 L 483 655 M 534 655 L 517 655 L 517 672 A 17 17 0 0 1 534 655     M 707 690 L 724 690 L 724 672 A 17 17 0 0 1 707 690 M 741 655 L 759 655 L 759 690 L 724 690 L 724 672 A 17 17 0 0 1 741 655 M 759 655 L 776 655 A 17 17 0 0 1 793 672 L 793 690 L 759 690 L 759 655 M 793 672 L 793 690 L 810 690 A 17 17 0 0 1 793 672   M 914 655 L 914 655 A 17 17 0 0 1 931 672 L 931 690 L 897 690 L 897 672 A 17 17 0 0 1 914 655 M 931 672 L 931 690 L 948 690 A 17 17 0 0 1 931 672  M 0 690 L 34 690 L 34 724 L 17 724 A 17 17 0 0 1 0 707 L 0 690 M 34 690 L 69 690 L 69 724 L 34 724 L 34 690 M 69 690 L 103 690 L 103 724 L 69 724 L 69 690 M 103 690 L 138 690 L 138 724 L 103 724 L 103 690 M 138 690 L 155 690 A 17 17 0 0 1 172 707 L 172 707 A 17 17 0 0 1 155 724 L 138 724 L 138 690  M 224 690 L 241 690 L 241 724 L 224 724 A 17 17 0 0 1 207 707 L 207 707 A 17 17 0 0 1 224 690 M 241 690 L 276 690 L 276 707 A 17 17 0 0 1 259 724 L 241 724 L 241 690 M 293 724 L 310 724 L 310 707 A 17 17 0 0 1 293 724 M 310 690 L 345 690 L 345 724 L 310 724 L 310 690 M 362 690 L 345 690 L 345 707 A 17 17 0 0 1 362 690 M 397 690 L 397 690 A 17 17 0 0 1 414 707 L 414 724 L 379 724 L 379 707 A 17 17 0 0 1 397 690  M 448 690 L 483 690 L 483 707 A 17 17 0 0 1 466 724 L 466 724 A 17 17 0 0 1 448 707 L 448 690 M 500 690 L 483 690 L 483 707 A 17 17 0 0 1 500 690 M 500 724 L 517 724 L 517 707 A 17 17 0 0 1 500 724 M 534 690 L 552 690 L 552 724 L 517 724 L 517 707 A 17 17 0 0 1 534 690 M 552 690 L 586 690 L 586 724 L 552 724 L 552 690 M 586 690 L 603 690 A 17 17 0 0 1 621 707 L 621 707 A 17 17 0 0 1 603 724 L 586 724 L 586 690  M 672 724 L 690 724 L 690 707 A 17 17 0 0 1 672 724 M 707 690 L 724 690 L 724 724 L 690 724 L 690 707 A 17 17 0 0 1 707 690 M 724 690 L 759 690 L 759 724 L 724 724 L 724 690 M 759 690 L 793 690 L 793 724 L 759 724 L 759 690 M 793 690 L 828 690 L 828 724 L 793 724 L 793 690 M 828 690 L 845 690 A 17 17 0 0 1 862 707 L 862 724 L 828 724 L 828 690 M 879 724 L 897 724 L 897 707 A 17 17 0 0 1 879 724 M 862 707 L 862 724 L 879 724 A 17 17 0 0 1 862 707 M 897 690 L 931 690 L 931 724 L 897 724 L 897 690 M 931 690 L 948 690 A 17 17 0 0 1 966 707 L 966 707 A 17 17 0 0 1 948 724 L 931 724 L 931 690          M 293 724 L 310 724 L 310 759 L 293 759 A 17 17 0 0 1 276 741 L 276 741 A 17 17 0 0 1 293 724 M 310 724 L 345 724 L 345 759 L 310 759 L 310 724 M 345 741 L 345 759 L 362 759 A 17 17 0 0 1 345 741 M 379 724 L 414 724 L 414 741 A 17 17 0 0 1 397 759 L 397 759 A 17 17 0 0 1 379 741 L 379 724   M 500 724 L 517 724 L 517 759 L 500 759 A 17 17 0 0 1 483 741 L 483 741 A 17 17 0 0 1 500 724 M 517 724 L 552 724 L 552 759 L 517 759 L 517 724 M 569 724 L 552 724 L 552 741 A 17 17 0 0 1 569 724 M 552 741 L 552 759 L 569 759 A 17 17 0 0 1 552 741 M 603 759 L 621 759 L 621 741 A 17 17 0 0 1 603 759 M 638 724 L 655 724 L 655 759 L 621 759 L 621 741 A 17 17 0 0 1 638 724 M 655 724 L 690 724 L 690 759 L 655 759 L 655 724 M 690 724 L 724 724 L 724 759 L 690 759 L 690 724 M 741 724 L 724 724 L 724 741 A 17 17 0 0 1 741 724  M 828 741 L 828 724 L 810 724 A 17 17 0 0 1 828 741 M 828 724 L 862 724 L 862 759 L 828 759 L 828 724 M 862 724 L 897 724 L 897 759 L 862 759 L 862 724 M 897 724 L 931 724 L 931 759 L 897 759 L 897 724 M 948 724 L 931 724 L 931 741 A 17 17 0 0 1 948 724 M 983 724 L 983 724 A 17 17 0 0 1 1000 741 L 1000 741 A 17 17 0 0 1 983 759 L 983 759 A 17 17 0 0 1 966 741 L 966 741 A 17 17 0 0 1 983 724 M 17 759 L 34 759 L 34 793 L 0 793 L 0 776 A 17 17 0 0 1 17 759 M 34 759 L 69 759 L 69 793 L 34 793 L 34 759 M 69 759 L 103 759 L 103 793 L 69 793 L 69 759 M 103 759 L 138 759 L 138 793 L 103 793 L 103 759 M 138 759 L 172 759 L 172 793 L 138 793 L 138 759 M 172 759 L 207 759 L 207 793 L 172 793 L 172 759 M 207 759 L 224 759 A 17 17 0 0 1 241 776 L 241 793 L 207 793 L 207 759  M 310 776 L 310 759 L 293 759 A 17 17 0 0 1 310 776 M 293 793 L 310 793 L 310 776 A 17 17 0 0 1 293 793 M 310 759 L 345 759 L 345 793 L 310 793 L 310 759 M 345 759 L 362 759 A 17 17 0 0 1 379 776 L 379 776 A 17 17 0 0 1 362 793 L 345 793 L 345 759  M 431 759 L 448 759 L 448 793 L 431 793 A 17 17 0 0 1 414 776 L 414 776 A 17 17 0 0 1 431 759 M 448 759 L 466 759 A 17 17 0 0 1 483 776 L 483 793 L 448 793 L 448 759 M 517 776 L 517 759 L 500 759 A 17 17 0 0 1 517 776 M 483 776 L 483 793 L 500 793 A 17 17 0 0 1 483 776 M 517 759 L 552 759 L 552 793 L 534 793 A 17 17 0 0 1 517 776 L 517 759 M 552 759 L 586 759 L 586 793 L 552 793 L 552 759 M 586 759 L 621 759 L 621 793 L 586 793 L 586 759 M 621 759 L 655 759 L 655 793 L 621 793 L 621 759 M 655 759 L 690 759 L 690 793 L 655 793 L 655 759 M 690 759 L 724 759 L 724 793 L 690 793 L 690 759  M 776 759 L 776 759 A 17 17 0 0 1 793 776 L 793 776 A 17 17 0 0 1 776 793 L 776 793 A 17 17 0 0 1 759 776 L 759 776 A 17 17 0 0 1 776 759  M 828 759 L 862 759 L 862 793 L 828 793 L 828 759 M 879 759 L 862 759 L 862 776 A 17 17 0 0 1 879 759 M 897 776 L 897 759 L 879 759 A 17 17 0 0 1 897 776 M 862 776 L 862 793 L 879 793 A 17 17 0 0 1 862 776 M 897 759 L 931 759 L 931 776 A 17 17 0 0 1 914 793 L 914 793 A 17 17 0 0 1 897 776 L 897 759   M 0 793 L 34 793 L 34 828 L 0 828 L 0 793 M 52 793 L 34 793 L 34 810 A 17 17 0 0 1 52 793    M 207 810 L 207 793 L 190 793 A 17 17 0 0 1 207 810 M 207 793 L 241 793 L 241 828 L 207 828 L 207 793  M 293 793 L 310 793 L 310 828 L 276 828 L 276 810 A 17 17 0 0 1 293 793 M 310 793 L 345 793 L 345 828 L 310 828 L 310 793 M 362 793 L 345 793 L 345 810 A 17 17 0 0 1 362 793 M 345 810 L 345 828 L 362 828 A 17 17 0 0 1 345 810  M 448 810 L 448 793 L 431 793 A 17 17 0 0 1 448 810 M 448 793 L 483 793 L 483 828 L 448 828 L 448 793 M 483 793 L 500 793 A 17 17 0 0 1 517 810 L 517 810 A 17 17 0 0 1 500 828 L 483 828 L 483 793  M 586 810 L 586 793 L 569 793 A 17 17 0 0 1 586 810 M 569 828 L 586 828 L 586 810 A 17 17 0 0 1 569 828 M 586 793 L 621 793 L 621 828 L 586 828 L 586 793 M 638 793 L 621 793 L 621 810 A 17 17 0 0 1 638 793 M 655 810 L 655 793 L 638 793 A 17 17 0 0 1 655 810 M 638 828 L 655 828 L 655 810 A 17 17 0 0 1 638 828 M 621 810 L 621 828 L 638 828 A 17 17 0 0 1 621 810 M 655 793 L 690 793 L 690 828 L 655 828 L 655 793 M 690 793 L 724 793 L 724 828 L 690 828 L 690 793 M 724 810 L 724 828 L 741 828 A 17 17 0 0 1 724 810  M 810 828 L 828 828 L 828 810 A 17 17 0 0 1 810 828 M 828 793 L 862 793 L 862 828 L 828 828 L 828 793 M 862 793 L 879 793 A 17 17 0 0 1 897 810 L 897 810 A 17 17 0 0 1 879 828 L 862 828 L 862 793  M 948 793 L 966 793 L 966 828 L 948 828 A 17 17 0 0 1 931 810 L 931 810 A 17 17 0 0 1 948 793 M 966 793 L 983 793 A 17 17 0 0 1 1000 810 L 1000 810 A 17 17 0 0 1 983 828 L 966 828 L 966 793 M 0 828 L 34 828 L 34 862 L 0 862 L 0 828  M 86 828 L 103 828 L 103 862 L 69 862 L 69 845 A 17 17 0 0 1 86 828 M 103 828 L 138 828 L 138 862 L 103 862 L 103 828 M 138 828 L 155 828 A 17 17 0 0 1 172 845 L 172 862 L 138 862 L 138 828  M 207 828 L 241 828 L 241 862 L 207 862 L 207 828  M 276 828 L 310 828 L 310 862 L 276 862 L 276 828 M 310 828 L 345 828 L 345 862 L 310 862 L 310 828 M 345 828 L 362 828 A 17 17 0 0 1 379 845 L 379 862 L 345 862 L 345 828 M 379 845 L 379 862 L 397 862 A 17 17 0 0 1 379 845  M 448 828 L 483 828 L 483 862 L 448 862 L 448 828 M 500 828 L 483 828 L 483 845 A 17 17 0 0 1 500 828 M 534 828 L 552 828 L 552 862 L 534 862 A 17 17 0 0 1 517 845 L 517 845 A 17 17 0 0 1 534 828 M 552 828 L 586 828 L 586 862 L 552 862 L 552 828 M 586 828 L 621 828 L 621 862 L 586 862 L 586 828 M 621 828 L 655 828 L 655 862 L 621 862 L 621 828 M 655 828 L 690 828 L 690 862 L 655 862 L 655 828 M 690 828 L 724 828 L 724 862 L 690 862 L 690 828 M 724 828 L 759 828 L 759 862 L 724 862 L 724 828 M 759 828 L 793 828 L 793 862 L 759 862 L 759 828 M 793 828 L 828 828 L 828 862 L 793 862 L 793 828 M 828 828 L 862 828 L 862 845 A 17 17 0 0 1 845 862 L 828 862 L 828 828 M 879 828 L 862 828 L 862 845 A 17 17 0 0 1 879 828    M 0 862 L 34 862 L 34 897 L 0 897 L 0 862  M 69 862 L 103 862 L 103 897 L 69 897 L 69 862 M 103 862 L 138 862 L 138 897 L 103 897 L 103 862 M 138 862 L 172 862 L 172 897 L 138 897 L 138 862  M 207 862 L 241 862 L 241 897 L 207 897 L 207 862  M 276 862 L 310 862 L 310 879 A 17 17 0 0 1 293 897 L 293 897 A 17 17 0 0 1 276 879 L 276 862 M 328 862 L 310 862 L 310 879 A 17 17 0 0 1 328 862 M 345 879 L 345 862 L 328 862 A 17 17 0 0 1 345 879 M 328 897 L 345 897 L 345 879 A 17 17 0 0 1 328 897 M 345 862 L 379 862 L 379 897 L 345 897 L 345 862 M 379 862 L 397 862 A 17 17 0 0 1 414 879 L 414 897 L 379 897 L 379 862  M 448 862 L 483 862 L 483 879 A 17 17 0 0 1 466 897 L 466 897 A 17 17 0 0 1 448 879 L 448 862  M 552 879 L 552 862 L 534 862 A 17 17 0 0 1 552 879 M 552 862 L 586 862 L 586 897 L 552 897 L 552 862 M 603 862 L 586 862 L 586 879 A 17 17 0 0 1 603 862     M 793 879 L 793 862 L 776 862 A 17 17 0 0 1 793 879 M 793 862 L 828 862 L 828 897 L 793 897 L 793 862 M 845 862 L 828 862 L 828 879 A 17 17 0 0 1 845 862 M 828 879 L 828 897 L 845 897 A 17 17 0 0 1 828 879 M 879 897 L 897 897 L 897 879 A 17 17 0 0 1 879 897 M 914 862 L 931 862 L 931 897 L 897 897 L 897 879 A 17 17 0 0 1 914 862 M 931 862 L 948 862 A 17 17 0 0 1 966 879 L 966 897 L 931 897 L 931 862 M 966 879 L 966 897 L 983 897 A 17 17 0 0 1 966 879 M 0 897 L 34 897 L 34 931 L 0 931 L 0 897  M 69 897 L 103 897 L 103 931 L 86 931 A 17 17 0 0 1 69 914 L 69 897 M 103 897 L 138 897 L 138 931 L 103 931 L 103 897 M 138 897 L 172 897 L 172 914 A 17 17 0 0 1 155 931 L 138 931 L 138 897  M 207 897 L 241 897 L 241 931 L 207 931 L 207 897  M 293 931 L 310 931 L 310 914 A 17 17 0 0 1 293 931 M 328 897 L 345 897 L 345 931 L 310 931 L 310 914 A 17 17 0 0 1 328 897 M 345 897 L 379 897 L 379 931 L 345 931 L 345 897 M 379 897 L 414 897 L 414 914 A 17 17 0 0 1 397 931 L 379 931 L 379 897   M 500 897 L 500 897 A 17 17 0 0 1 517 914 L 517 931 L 483 931 L 483 914 A 17 17 0 0 1 500 897 M 517 914 L 517 931 L 534 931 A 17 17 0 0 1 517 914 M 552 897 L 586 897 L 586 914 A 17 17 0 0 1 569 931 L 569 931 A 17 17 0 0 1 552 914 L 552 897    M 707 897 L 724 897 L 724 931 L 690 931 L 690 914 A 17 17 0 0 1 707 897 M 724 897 L 741 897 A 17 17 0 0 1 759 914 L 759 931 L 724 931 L 724 897  M 793 897 L 828 897 L 828 931 L 810 931 A 17 17 0 0 1 793 914 L 793 897 M 828 897 L 862 897 L 862 931 L 828 931 L 828 897 M 862 897 L 897 897 L 897 931 L 862 931 L 862 897 M 897 897 L 931 897 L 931 931 L 897 931 L 897 897 M 931 897 L 966 897 L 966 931 L 931 931 L 931 897 M 966 897 L 983 897 A 17 17 0 0 1 1000 914 L 1000 931 L 966 931 L 966 897 M 0 931 L 34 931 L 34 966 L 0 966 L 0 931 M 34 948 L 34 966 L 52 966 A 17 17 0 0 1 34 948    M 190 966 L 207 966 L 207 948 A 17 17 0 0 1 190 966 M 207 931 L 241 931 L 241 966 L 207 966 L 207 931  M 293 931 L 310 931 L 310 966 L 293 966 A 17 17 0 0 1 276 948 L 276 948 A 17 17 0 0 1 293 931 M 310 931 L 345 931 L 345 966 L 310 966 L 310 931 M 362 931 L 345 931 L 345 948 A 17 17 0 0 1 362 931 M 345 948 L 345 966 L 362 966 A 17 17 0 0 1 345 948  M 431 931 L 431 931 A 17 17 0 0 1 448 948 L 448 948 A 17 17 0 0 1 431 966 L 431 966 A 17 17 0 0 1 414 948 L 414 948 A 17 17 0 0 1 431 931 M 466 966 L 483 966 L 483 948 A 17 17 0 0 1 466 966 M 483 931 L 517 931 L 517 966 L 483 966 L 483 931 M 517 931 L 534 931 A 17 17 0 0 1 552 948 L 552 948 A 17 17 0 0 1 534 966 L 517 966 L 517 931   M 638 931 L 638 931 A 17 17 0 0 1 655 948 L 655 948 A 17 17 0 0 1 638 966 L 638 966 A 17 17 0 0 1 621 948 L 621 948 A 17 17 0 0 1 638 931  M 690 931 L 724 931 L 724 966 L 690 966 L 690 931 M 724 931 L 759 931 L 759 966 L 724 966 L 724 931 M 759 948 L 759 966 L 776 966 A 17 17 0 0 1 759 948 M 828 948 L 828 931 L 810 931 A 17 17 0 0 1 828 948 M 810 966 L 828 966 L 828 948 A 17 17 0 0 1 810 966 M 828 931 L 862 931 L 862 966 L 828 966 L 828 931 M 862 931 L 897 931 L 897 966 L 862 966 L 862 931 M 897 931 L 931 931 L 931 966 L 897 966 L 897 931 M 948 931 L 931 931 L 931 948 A 17 17 0 0 1 948 931 M 966 948 L 966 931 L 948 931 A 17 17 0 0 1 966 948 M 966 931 L 1000 931 L 1000 948 A 17 17 0 0 1 983 966 L 983 966 A 17 17 0 0 1 966 948 L 966 931 M 0 966 L 34 966 L 34 1000 L 17 1000 A 17 17 0 0 1 0 983 L 0 966 M 34 966 L 69 966 L 69 1000 L 34 1000 L 34 966 M 69 966 L 103 966 L 103 1000 L 69 1000 L 69 966 M 103 966 L 138 966 L 138 1000 L 103 1000 L 103 966 M 138 966 L 172 966 L 172 1000 L 138 1000 L 138 966 M 172 966 L 207 966 L 207 1000 L 172 1000 L 172 966 M 207 966 L 241 966 L 241 983 A 17 17 0 0 1 224 1000 L 207 1000 L 207 966  M 310 983 L 310 966 L 293 966 A 17 17 0 0 1 310 983 M 310 966 L 345 966 L 345 1000 L 328 1000 A 17 17 0 0 1 310 983 L 310 966 M 345 966 L 362 966 A 17 17 0 0 1 379 983 L 379 983 A 17 17 0 0 1 362 1000 L 345 1000 L 345 966   M 466 966 L 483 966 L 483 1000 L 466 1000 A 17 17 0 0 1 448 983 L 448 983 A 17 17 0 0 1 466 966 M 483 966 L 517 966 L 517 983 A 17 17 0 0 1 500 1000 L 483 1000 L 483 966 M 534 966 L 517 966 L 517 983 A 17 17 0 0 1 534 966     M 690 966 L 724 966 L 724 1000 L 707 1000 A 17 17 0 0 1 690 983 L 690 966 M 724 966 L 759 966 L 759 1000 L 724 1000 L 724 966 M 759 966 L 793 966 L 793 1000 L 759 1000 L 759 966 M 793 966 L 828 966 L 828 1000 L 793 1000 L 793 966 M 828 966 L 862 966 L 862 983 A 17 17 0 0 1 845 1000 L 828 1000 L 828 966 M 879 966 L 862 966 L 862 983 A 17 17 0 0 1 879 966 M 897 983 L 897 966 L 879 966 A 17 17 0 0 1 897 983 M 897 966 L 931 966 L 931 983 A 17 17 0 0 1 914 1000 L 914 1000 A 17 17 0 0 1 897 983 L 897 966  "></path></svg>