<svg width="74" height="56" viewBox="0 0 74 56" fill="none" xmlns="http://www.w3.org/2000/svg">
<path d="M14.8022 56C13.6065 56 12.6371 55.0298 12.6371 53.833C12.6371 52.6362 13.6065 51.666 14.8022 51.666C15.9979 51.666 16.9673 52.6362 16.9673 53.833C16.9673 55.0298 15.9979 56 14.8022 56Z" fill="#092433"/>
<path d="M6.11862 56C4.92288 56 3.95354 55.0298 3.95354 53.833C3.95354 52.6362 4.92288 51.666 6.11862 51.666C7.31435 51.666 8.28369 52.6362 8.28369 53.833C8.28369 55.0298 7.31435 56 6.11862 56Z" fill="#092433"/>
<path d="M3.24474 34.334H18.8035L18.857 33.8562C18.9737 32.7964 19.4773 31.8169 20.2714 31.1053C21.0654 30.3938 22.0941 30.0002 23.1604 30H26V32.167H22.2049C21.9407 32.1676 21.6859 32.2653 21.489 32.4414C21.2921 32.6176 21.1667 32.8599 21.1367 33.1224L19.5506 47.7773C19.4358 48.8384 18.9332 49.8197 18.1394 50.5331C17.3456 51.2465 16.3164 51.6418 15.2492 51.6431L2.09437 51.6546V49.501H16.1549C16.4196 49.5004 16.6748 49.4029 16.8724 49.2268C17.0699 49.0507 17.1961 48.8083 17.227 48.5455L17.3607 47.3397H3.94796C3.14763 47.3387 2.37584 47.0423 1.78058 46.5073C1.18532 45.9724 0.808477 45.2365 0.722325 44.4408L0.0191041 37.9437C-0.0316866 37.4897 0.0138556 37.0301 0.152754 36.5948C0.291653 36.1596 0.520786 35.7586 0.825193 35.4179C1.1296 35.0773 1.50243 34.8047 1.91935 34.6179C2.33627 34.4311 2.7879 34.3344 3.24474 34.334V34.334ZM2.20711 37.7048L2.43451 39.7457H6.28311V36.4971H3.28487C3.13208 36.4972 2.98102 36.5296 2.8416 36.5921C2.70217 36.6546 2.57751 36.7458 2.47578 36.8598C2.37404 36.9738 2.29752 37.108 2.25122 37.2537C2.20493 37.3993 2.18989 37.553 2.20711 37.7048V37.7048ZM12.2414 39.7457V36.4971H8.44818V39.7457H12.2414ZM8.44818 41.9165V45.1651H12.2414V41.9165H8.44818ZM14.4083 36.4971V39.7457H18.2015L18.5627 36.4971H14.4083ZM17.5919 45.167L17.9512 41.9184H14.4083V45.167H17.5919ZM3.99573 45.167H6.28311V41.9184H2.67529L2.92753 44.2115C2.9593 44.475 3.08651 44.7177 3.2851 44.8938C3.48369 45.0698 3.7399 45.167 4.00529 45.167H3.99573Z" fill="#092433"/>
<path fill-rule="evenodd" clip-rule="evenodd" d="M26 8C26 3.58173 29.5817 0 34 0H50C54.4183 0 58 3.58173 58 8V24H69.8431C73.4067 24 75.1914 28.3086 72.6716 30.8284L61.5503 41.9498C60.2375 43.2625 58.457 44 56.6005 44H54V48H50V44H46V48H42V44C39.7909 44 38 42.2092 38 40V32H34V36H30V30C30 28.8954 30.8954 28 32 28H38V24H28C26.8954 24 26 23.1046 26 22V8ZM50 8H46V12H50V8Z" fill="#092433"/>
<defs>
<rect width="26" height="26" fill="white" transform="matrix(-1 0 0 1 26 30)"/>
<rect width="48" height="48" fill="white" transform="translate(26)"/>
</defs>
</svg>
