<svg xmlns="http://www.w3.org/2000/svg" version="1.1" xmlns:xlink="http://www.w3.org/1999/xlink" width="1000" height="1000"><style>
    #light-icon {
      display: inline;
    }
    #dark-icon {
      display: none;
    }

    @media (prefers-color-scheme: dark) {
      #light-icon {
        display: none;
      }
      #dark-icon {
        display: inline;
      }
    }
  </style><g id="light-icon"><svg xmlns="http://www.w3.org/2000/svg" version="1.1" xmlns:xlink="http://www.w3.org/1999/xlink" width="1000" height="1000"><g clip-path="url(#SvgjsClipPath1294)"><rect width="1000" height="1000" fill="#ffffff"></rect><g transform="matrix(10.81081081081081,0,0,10.81081081081081,100,197.2972972972973)"><svg xmlns="http://www.w3.org/2000/svg" version="1.1" xmlns:xlink="http://www.w3.org/1999/xlink" width="74" height="56"><svg width="74" height="56" viewBox="0 0 74 56" fill="none" xmlns="http://www.w3.org/2000/svg">
<path d="M59.1978 56C60.3935 56 61.3629 55.0298 61.3629 53.833C61.3629 52.6362 60.3935 51.666 59.1978 51.666C58.0021 51.666 57.0327 52.6362 57.0327 53.833C57.0327 55.0298 58.0021 56 59.1978 56Z" fill="#092433"></path>
<path d="M67.8814 56C69.0771 56 70.0465 55.0298 70.0465 53.833C70.0465 52.6362 69.0771 51.666 67.8814 51.666C66.6856 51.666 65.7163 52.6362 65.7163 53.833C65.7163 55.0298 66.6856 56 67.8814 56Z" fill="#092433"></path>
<path d="M70.7553 34.334H55.1965L55.143 33.8562C55.0263 32.7964 54.5227 31.8169 53.7286 31.1053C52.9346 30.3938 51.9059 30.0002 50.8396 30H48V32.167H51.7951C52.0593 32.1676 52.3141 32.2653 52.511 32.4414C52.7079 32.6176 52.8333 32.8599 52.8633 33.1224L54.4494 47.7773C54.5642 48.8384 55.0668 49.8197 55.8606 50.5331C56.6544 51.2465 57.6836 51.6418 58.7508 51.6431L71.9056 51.6546V49.501H57.8451C57.5804 49.5004 57.3252 49.4029 57.1276 49.2268C56.9301 49.0507 56.8039 48.8083 56.773 48.5455L56.6393 47.3397H70.052C70.8524 47.3387 71.6242 47.0423 72.2194 46.5073C72.8147 45.9724 73.1915 45.2365 73.2777 44.4408L73.9809 37.9437C74.0317 37.4897 73.9861 37.0301 73.8472 36.5948C73.7083 36.1596 73.4792 35.7586 73.1748 35.4179C72.8704 35.0773 72.4976 34.8047 72.0806 34.6179C71.6637 34.4311 71.2121 34.3344 70.7553 34.334V34.334ZM71.7929 37.7048L71.5655 39.7457H67.7169V36.4971H70.7151C70.8679 36.4972 71.019 36.5296 71.1584 36.5921C71.2978 36.6546 71.4225 36.7458 71.5242 36.8598C71.626 36.9738 71.7025 37.108 71.7488 37.2537C71.7951 37.3993 71.8101 37.553 71.7929 37.7048V37.7048ZM61.7586 39.7457V36.4971H65.5518V39.7457H61.7586ZM65.5518 41.9165V45.1651H61.7586V41.9165H65.5518ZM59.5917 36.4971V39.7457H55.7985L55.4373 36.4971H59.5917ZM56.4081 45.167L56.0488 41.9184H59.5917V45.167H56.4081ZM70.0043 45.167H67.7169V41.9184H71.3247L71.0725 44.2115C71.0407 44.475 70.9135 44.7177 70.7149 44.8938C70.5163 45.0698 70.2601 45.167 69.9947 45.167H70.0043Z" fill="#092433"></path>
<path fill-rule="evenodd" clip-rule="evenodd" d="M48 8C48 3.58173 44.4183 0 40 0H24C19.5817 0 16 3.58173 16 8V24H4.15686C0.593262 24 -1.19141 28.3086 1.32837 30.8284L12.4497 41.9498C13.7625 43.2625 15.543 44 17.3995 44H20V48H24V44H28V48H32V44C34.2091 44 36 42.2092 36 40V32H40V36H44V30C44 28.8954 43.1046 28 42 28H36V24H46C47.1046 24 48 23.1046 48 22V8ZM24 8H28V12H24V8Z" fill="#092433"></path>
</svg></svg></g></g><defs><clipPath id="SvgjsClipPath1294"><rect width="1000" height="1000" x="0" y="0" rx="500" ry="500"></rect></clipPath></defs></svg></g><g id="dark-icon"><svg xmlns="http://www.w3.org/2000/svg" version="1.1" xmlns:xlink="http://www.w3.org/1999/xlink" width="1000" height="1000"><g><g transform="matrix(13.513513513513514,0,0,13.513513513513514,0,121.62162162162161)" style="filter: contrast(0.3846153846153846) brightness(4.5)"><svg xmlns="http://www.w3.org/2000/svg" version="1.1" xmlns:xlink="http://www.w3.org/1999/xlink" width="74" height="56"><svg width="74" height="56" viewBox="0 0 74 56" fill="none" xmlns="http://www.w3.org/2000/svg">
<path d="M59.1978 56C60.3935 56 61.3629 55.0298 61.3629 53.833C61.3629 52.6362 60.3935 51.666 59.1978 51.666C58.0021 51.666 57.0327 52.6362 57.0327 53.833C57.0327 55.0298 58.0021 56 59.1978 56Z" fill="#092433"></path>
<path d="M67.8814 56C69.0771 56 70.0465 55.0298 70.0465 53.833C70.0465 52.6362 69.0771 51.666 67.8814 51.666C66.6856 51.666 65.7163 52.6362 65.7163 53.833C65.7163 55.0298 66.6856 56 67.8814 56Z" fill="#092433"></path>
<path d="M70.7553 34.334H55.1965L55.143 33.8562C55.0263 32.7964 54.5227 31.8169 53.7286 31.1053C52.9346 30.3938 51.9059 30.0002 50.8396 30H48V32.167H51.7951C52.0593 32.1676 52.3141 32.2653 52.511 32.4414C52.7079 32.6176 52.8333 32.8599 52.8633 33.1224L54.4494 47.7773C54.5642 48.8384 55.0668 49.8197 55.8606 50.5331C56.6544 51.2465 57.6836 51.6418 58.7508 51.6431L71.9056 51.6546V49.501H57.8451C57.5804 49.5004 57.3252 49.4029 57.1276 49.2268C56.9301 49.0507 56.8039 48.8083 56.773 48.5455L56.6393 47.3397H70.052C70.8524 47.3387 71.6242 47.0423 72.2194 46.5073C72.8147 45.9724 73.1915 45.2365 73.2777 44.4408L73.9809 37.9437C74.0317 37.4897 73.9861 37.0301 73.8472 36.5948C73.7083 36.1596 73.4792 35.7586 73.1748 35.4179C72.8704 35.0773 72.4976 34.8047 72.0806 34.6179C71.6637 34.4311 71.2121 34.3344 70.7553 34.334V34.334ZM71.7929 37.7048L71.5655 39.7457H67.7169V36.4971H70.7151C70.8679 36.4972 71.019 36.5296 71.1584 36.5921C71.2978 36.6546 71.4225 36.7458 71.5242 36.8598C71.626 36.9738 71.7025 37.108 71.7488 37.2537C71.7951 37.3993 71.8101 37.553 71.7929 37.7048V37.7048ZM61.7586 39.7457V36.4971H65.5518V39.7457H61.7586ZM65.5518 41.9165V45.1651H61.7586V41.9165H65.5518ZM59.5917 36.4971V39.7457H55.7985L55.4373 36.4971H59.5917ZM56.4081 45.167L56.0488 41.9184H59.5917V45.167H56.4081ZM70.0043 45.167H67.7169V41.9184H71.3247L71.0725 44.2115C71.0407 44.475 70.9135 44.7177 70.7149 44.8938C70.5163 45.0698 70.2601 45.167 69.9947 45.167H70.0043Z" fill="#092433"></path>
<path fill-rule="evenodd" clip-rule="evenodd" d="M48 8C48 3.58173 44.4183 0 40 0H24C19.5817 0 16 3.58173 16 8V24H4.15686C0.593262 24 -1.19141 28.3086 1.32837 30.8284L12.4497 41.9498C13.7625 43.2625 15.543 44 17.3995 44H20V48H24V44H28V48H32V44C34.2091 44 36 42.2092 36 40V32H40V36H44V30C44 28.8954 43.1046 28 42 28H36V24H46C47.1046 24 48 23.1046 48 22V8ZM24 8H28V12H24V8Z" fill="#092433"></path>
</svg></svg></g></g></svg></g></svg>